<svg width="278" height="49" viewBox="0 0 278 49" fill="none" xmlns="http://www.w3.org/2000/svg">
<path d="M25.6999 30.965C28.5527 30.965 30.8653 28.6601 30.8653 25.8168C30.8653 22.9736 28.5527 20.6687 25.6999 20.6687C22.8471 20.6687 20.5345 22.9736 20.5345 25.8168C20.5345 28.6601 22.8471 30.965 25.6999 30.965Z" fill="#0147A2"/>
<path d="M18.0408 17.5747C18.9314 16.4842 19.9747 14.43 18.7787 11.615C18.3971 10.7274 18.3462 6.72047 22.621 5.90894C25.5218 5.32565 29.9747 5.90894 34.0969 8.62249C36.2852 10.068 37.761 8.62249 38.2191 7.96312C39.1605 6.64439 39.2369 5.19885 37.2267 4.00691C31.934 0.811512 24.733 -1.4202 15.6744 1.82593C12.2393 3.06858 12.3665 6.1879 13.5115 9.1297C14.1477 10.7781 14.911 12.4519 13.6896 13.6438C12.57 14.709 10.738 13.9989 9.26214 13.4156C8.26977 13.0098 3.46058 10.8796 1.57761 16.0277C-0.508914 21.7084 -0.839706 29.494 3.79137 36.95C4.75829 38.5223 6.48859 38.7252 7.7863 37.8629C8.44789 37.4318 9.94917 36.0116 8.54967 33.8307C6.69215 30.9142 5.08909 26.5522 5.67433 22.1395C5.92878 20.2122 8.19343 16.9407 12.0866 18.8173C14.0459 19.705 16.794 19.0963 18.0408 17.5747Z" fill="#00B7E0"/>
<path d="M5.16543 10.2963C8.01821 10.2963 10.3309 7.99139 10.3309 5.14815C10.3309 2.3049 8.01821 0 5.16543 0C2.31264 0 0 2.3049 0 5.14815C0 7.99139 2.31264 10.2963 5.16543 10.2963Z" fill="#00B7E0"/>
<path d="M30.4582 30.9649C29.5676 32.0554 28.5244 34.1096 29.7203 36.9246C30.102 37.8122 30.1529 41.8191 25.8781 42.6307C23.0027 43.1886 18.5243 42.6053 14.4022 39.8917C12.2138 38.4462 10.738 39.8917 10.28 40.5511C9.33851 41.8699 9.46573 43.3915 11.3233 44.5073C16.6414 47.652 23.7661 49.9598 32.8247 46.7137C36.2598 45.471 36.1326 42.3517 34.9875 39.4099C34.3514 37.7615 33.588 36.0877 34.8094 34.8958C35.929 33.8306 37.7611 34.5407 39.2369 35.124C40.2293 35.5298 45.013 37.6347 46.9214 32.5119C49.1098 26.679 49.237 18.792 44.7077 11.5896C43.7153 10.0173 42.0105 9.8144 40.7128 10.6767C40.0512 11.1078 38.5499 12.528 39.9494 14.7089C41.8069 17.6254 43.41 21.9874 42.8247 26.4001C42.5703 28.3274 40.3056 31.5989 36.4125 29.7223C34.4532 28.8346 31.7051 29.4433 30.4582 30.9649Z" fill="#0147A2"/>
<path d="M221.785 20.8125L223.439 20.7871C223.719 20.7871 223.999 20.9646 224.1 21.2182L227.256 31.6921C227.332 31.9203 227.663 31.8949 227.739 31.6921L232.879 17.6678C232.981 17.3888 233.235 17.2113 233.541 17.2113H236.136C236.62 17.2113 236.976 17.7185 236.798 18.175L229.546 36.2316C229.444 36.4852 229.189 36.6627 228.884 36.6627H226.289C226.009 36.6627 225.754 36.4852 225.653 36.2316C225.653 36.2316 223.744 29.8407 222.955 27.4822C222.854 27.1779 222.446 27.2033 222.345 27.4822L219.673 36.2062C219.571 36.4598 219.317 36.6373 219.037 36.6373H216.441C216.161 36.6373 215.907 36.4598 215.78 36.2062L208.553 18.1496C208.375 17.6932 208.706 17.1859 209.215 17.1859H211.759C212.065 17.1859 212.319 17.3635 212.421 17.6424L217.586 31.6413C217.663 31.8696 217.968 31.8696 218.07 31.6413L221.174 21.1929C221.225 20.99 221.48 20.8125 221.785 20.8125ZM243.515 36.9416C241.938 36.9416 240.589 36.612 239.444 35.9272C238.324 35.2425 237.459 34.3295 236.849 33.1883C236.238 32.0471 235.933 30.8298 235.933 29.5111C235.933 28.167 236.238 26.9497 236.849 25.8085C237.459 24.6672 238.35 23.7796 239.469 23.0949C240.614 22.4102 241.963 22.0551 243.515 22.0551C245.067 22.0551 246.416 22.4102 247.536 23.0949C248.681 23.7796 249.546 24.6672 250.157 25.8085C250.767 26.9497 251.073 28.167 251.073 29.5111C251.073 30.8298 250.767 32.0471 250.157 33.1883C249.546 34.3295 248.681 35.2425 247.536 35.9272C246.391 36.612 245.067 36.9416 243.515 36.9416ZM239.749 29.5364C239.749 30.3733 239.902 31.1341 240.233 31.7935C240.564 32.4275 241.022 32.9347 241.581 33.2898C242.141 33.6448 242.803 33.8477 243.515 33.8477C244.202 33.8477 244.838 33.6702 245.424 33.2898C245.983 32.9094 246.441 32.4021 246.772 31.7428C247.129 31.0834 247.307 30.348 247.307 29.4857C247.307 28.6742 247.129 27.9387 246.772 27.3047C246.441 26.6453 245.983 26.1381 245.424 25.7577C244.864 25.3773 244.228 25.1745 243.515 25.1745C242.803 25.1745 242.167 25.3773 241.581 25.7577C241.022 26.1128 240.564 26.6453 240.233 27.3047C239.902 27.9387 239.749 28.6995 239.749 29.5364ZM262.116 24.8448C262.116 25.1998 261.836 25.5041 261.454 25.5295C260.589 25.6056 259.826 25.8085 259.113 26.1635C258.299 26.5693 257.688 27.1272 257.281 27.8373C257.23 27.9387 257.205 28.0402 257.205 28.167V35.9779C257.205 36.3584 256.9 36.6627 256.518 36.6627H254.228C253.846 36.6627 253.541 36.3584 253.541 35.9779V23.0188C253.541 22.6384 253.846 22.3341 254.228 22.3341H256.213C256.594 22.3341 256.9 22.6384 256.9 23.0188V24.439C256.9 24.6926 257.23 24.794 257.358 24.5658C257.765 23.9572 258.248 23.4499 258.808 23.0442C259.597 22.4863 260.437 22.1819 261.302 22.1059C261.327 22.1059 261.353 22.1059 261.378 22.1059C261.76 22.1059 262.065 22.4102 262.065 22.7906V24.8448H262.116ZM273.795 36.3837L270.131 30.982C269.953 30.7284 269.571 30.6776 269.342 30.9059L268.045 32.1993C267.917 32.3261 267.841 32.5036 267.841 32.7065V36.0033C267.841 36.3837 267.536 36.688 267.154 36.688H264.864C264.482 36.688 264.177 36.3837 264.177 36.0033V17.3888C264.177 17.0084 264.482 16.7041 264.864 16.7041H267.154C267.536 16.7041 267.841 17.0084 267.841 17.3888V27.9387C267.841 28.2431 268.223 28.3952 268.426 28.167L273.439 22.6131C273.566 22.4609 273.77 22.3848 273.948 22.3848H275.984C276.594 22.3848 276.9 23.0949 276.518 23.5514L272.549 28.0655C272.345 28.2938 272.32 28.6488 272.498 28.9278L277.18 35.6229C277.51 36.0794 277.18 36.7134 276.594 36.7134H274.381C274.152 36.688 273.923 36.5612 273.795 36.3837Z" fill="#0147A2"/>
<path d="M76.4348 36.1707V25.4433C76.4348 25.1136 75.9768 24.9868 75.8241 25.2911L71.5238 33.4571C71.4729 33.5586 71.3457 33.6346 71.2439 33.6346H69.5136C69.3864 33.6346 69.2846 33.5586 69.2337 33.4571L64.9334 25.2911C64.7808 24.9868 64.3227 25.1136 64.3227 25.4433V36.196C64.3227 36.5764 64.0174 36.9061 63.6103 36.9061H61.2184C60.8367 36.9061 60.5059 36.6018 60.5059 36.196V18.1141C60.5059 17.7337 60.8113 17.404 61.2184 17.404H64.1701C64.4245 17.404 64.679 17.5562 64.7808 17.7844L70.0734 27.9286C70.2006 28.1568 70.5314 28.1568 70.6587 27.9286L76.0022 17.7844C76.1294 17.5562 76.3584 17.404 76.6129 17.404H79.5391C79.9208 17.404 80.2516 17.7084 80.2516 18.1141V36.1707C80.2516 36.5511 79.9463 36.8808 79.5391 36.8808H77.1473C76.7656 36.8808 76.4348 36.5764 76.4348 36.1707ZM90.4043 37.1597C88.8522 37.1597 87.5036 36.83 86.3585 36.1453C85.2389 35.4606 84.3738 34.573 83.7376 33.4571C83.1269 32.3159 82.7961 31.0986 82.7961 29.7799C82.7961 28.4358 83.1015 27.1931 83.7122 26.0519C84.3229 24.9107 85.2135 23.9977 86.3585 23.313C87.5036 22.6283 88.8522 22.2732 90.4298 22.2732C92.0074 22.2732 93.356 22.6283 94.4756 23.313C95.5952 23.9977 96.4349 24.8853 97.0202 26.0265C97.6308 27.1424 97.9362 28.3343 97.9362 29.6531C97.9362 29.856 97.9362 30.0588 97.9107 30.2364C97.8853 30.5914 97.58 30.8957 97.2237 30.8957H87.0964C86.8929 30.8957 86.7402 31.0732 86.7656 31.2761C86.9183 32.2145 87.3 32.9499 87.9616 33.5332C88.7249 34.1672 89.5646 34.4969 90.557 34.4969C91.2949 34.4969 91.982 34.3194 92.6181 33.9643C93.2797 33.6093 93.7377 33.1274 93.9667 32.5441L96.2568 33.1782C96.7148 33.305 96.9184 33.8629 96.6385 34.2686C96.1296 35.0041 95.4425 35.6127 94.5774 36.1453C93.3815 36.8047 91.982 37.1597 90.4043 37.1597ZM86.9946 28.5372H93.7886C93.9921 28.5372 94.1448 28.3597 94.1194 28.1568C93.9667 27.2438 93.5596 26.5084 92.9489 25.9505C92.2619 25.2657 91.3967 24.936 90.4043 24.936C89.412 24.936 88.5723 25.2657 87.8598 25.9505C87.2491 26.5337 86.8674 27.2692 86.7147 28.1822C86.6384 28.3597 86.7911 28.5372 86.9946 28.5372ZM99.183 32.6202C99.183 31.6819 99.4375 30.8704 99.9464 30.1856C100.481 29.4755 101.219 28.9176 102.135 28.5372C103.076 28.1568 104.145 27.9539 105.341 27.9539C105.952 27.9539 106.562 28.0046 107.173 28.1061C107.605 28.1822 108.013 28.2583 108.369 28.3597C108.572 28.4358 108.801 28.2583 108.801 28.0554V27.751C108.801 26.8381 108.522 26.128 107.987 25.6461C107.453 25.1643 106.664 24.9107 105.595 24.9107C104.806 24.9107 104.043 25.0375 103.331 25.3165C102.618 25.5954 101.855 26.0012 101.066 26.5337L100.15 24.6824C99.9973 24.3528 100.099 23.947 100.43 23.7695C101.193 23.313 101.982 22.9579 102.796 22.7043C103.814 22.4 104.857 22.2479 105.952 22.2479C108.013 22.2479 109.59 22.7551 110.735 23.7948C111.88 24.8092 112.466 26.2801 112.466 28.1822V32.747C112.466 33.1528 112.542 33.4318 112.669 33.5839C112.745 33.66 112.822 33.7107 112.949 33.7614C113.203 33.8629 113.356 34.1418 113.356 34.4208V36.2468C113.356 36.6018 113.102 36.9061 112.745 36.9315C112.644 36.9568 112.542 36.9568 112.44 36.9568C112.186 36.9822 111.957 37.0076 111.779 37.0076C111.041 37.0076 110.481 36.8554 110.099 36.5257C109.717 36.196 109.488 35.7903 109.412 35.3084C109.387 35.0295 109.056 34.928 108.852 35.1055C108.318 35.6635 107.682 36.12 106.969 36.4496C106.053 36.8808 105.112 37.0836 104.145 37.0836C103.178 37.0836 102.313 36.8808 101.549 36.5004C100.786 36.0946 100.201 35.562 99.7683 34.8773C99.3866 34.2686 99.183 33.4825 99.183 32.6202ZM108.14 33.381C108.598 32.9499 108.827 32.5188 108.827 32.113V30.8957C108.827 30.7689 108.751 30.6421 108.623 30.5914C107.733 30.2617 106.842 30.1096 105.952 30.1096C104.985 30.1096 104.196 30.3124 103.585 30.7436C102.974 31.1493 102.669 31.6819 102.669 32.3666C102.669 32.9246 102.898 33.4064 103.331 33.8375C103.763 34.2687 104.399 34.4969 105.239 34.4969C105.799 34.4969 106.308 34.3955 106.842 34.1926C107.351 33.9643 107.784 33.7107 108.14 33.381ZM128.649 36.8808H126.359C125.977 36.8808 125.646 36.5764 125.646 36.1707V28.8162C125.646 27.675 125.443 26.8127 125.036 26.3055C124.628 25.7983 124.069 25.5193 123.356 25.5193C122.873 25.5193 122.364 25.6461 121.855 25.8997C121.371 26.1533 120.913 26.5084 120.506 26.9649C120.125 27.396 119.819 27.8778 119.641 28.4358C119.641 28.4611 119.616 28.5119 119.616 28.5372V36.1707C119.616 36.5511 119.31 36.8808 118.903 36.8808H116.613C116.231 36.8808 115.901 36.5764 115.901 36.1707V23.2115C115.901 22.8311 116.206 22.5015 116.613 22.5015H118.547C118.929 22.5015 119.259 22.8058 119.259 23.2115V25.1643C119.794 24.2767 120.557 23.5666 121.575 23.0594C122.593 22.5268 123.712 22.2732 124.985 22.2732C125.875 22.2732 126.613 22.4254 127.173 22.7551C127.733 23.0594 128.191 23.4905 128.496 24.0484C128.802 24.581 129.031 25.1897 129.132 25.849C129.26 26.5337 129.336 27.2185 129.336 27.9032V36.1707C129.336 36.5764 129.031 36.8808 128.649 36.8808ZM132.542 19.8133V17.5816C132.542 17.2011 132.847 16.8715 133.255 16.8715H135.545C135.926 16.8715 136.257 17.1758 136.257 17.5816V19.8386C136.257 20.219 135.952 20.5487 135.545 20.5487H133.255C132.873 20.5234 132.542 20.219 132.542 19.8133ZM132.542 36.1707V23.2115C132.542 22.8311 132.847 22.5015 133.255 22.5015H135.545C135.926 22.5015 136.257 22.8058 136.257 23.2115V36.1707C136.257 36.5511 135.952 36.8808 135.545 36.8808H133.255C132.873 36.8808 132.542 36.5764 132.542 36.1707ZM152.237 36.8808H149.947C149.565 36.8808 149.234 36.5764 149.234 36.1707V28.8162C149.234 27.675 149.031 26.8127 148.624 26.3055C148.216 25.7729 147.657 25.5193 146.944 25.5193C146.461 25.5193 145.952 25.6461 145.443 25.8997C144.959 26.1533 144.501 26.5084 144.094 26.9649C143.713 27.396 143.407 27.8778 143.229 28.4358C143.229 28.4611 143.204 28.5119 143.204 28.5372V36.1707C143.204 36.5511 142.898 36.8808 142.491 36.8808H140.201C139.819 36.8808 139.489 36.5764 139.489 36.1707V23.2115C139.489 22.8311 139.794 22.5015 140.201 22.5015H142.135C142.517 22.5015 142.847 22.8058 142.847 23.2115V25.1643C143.382 24.2767 144.145 23.5666 145.163 23.0594C146.181 22.5268 147.3 22.2732 148.573 22.2732C149.463 22.2732 150.201 22.4254 150.761 22.7551C151.321 23.0594 151.779 23.4905 152.084 24.0484C152.389 24.581 152.618 25.1897 152.72 25.849C152.848 26.5337 152.924 27.2185 152.924 27.9032V36.1707C152.949 36.5764 152.618 36.8808 152.237 36.8808ZM161.779 36.9568C160.507 36.9568 159.362 36.6272 158.395 35.9678C157.428 35.3084 156.664 34.4208 156.105 33.3303C155.545 32.2145 155.29 30.9972 155.29 29.6784C155.29 28.2836 155.57 27.041 156.13 25.9251C156.69 24.7839 157.479 23.8963 158.496 23.2369C159.514 22.5775 160.659 22.2479 161.982 22.2479C163.102 22.2479 164.069 22.5015 164.934 23.0087C165.494 23.3383 166.003 23.7441 166.435 24.2513C166.639 24.4796 167.021 24.3528 167.021 24.0484V23.1862C167.021 22.8058 167.326 22.4761 167.733 22.4761H169.54C169.921 22.4761 170.252 22.7804 170.252 23.1862V36.1707C170.252 37.5909 169.896 38.8081 169.209 39.8226C168.522 40.837 167.58 41.6231 166.384 42.1557C165.163 42.7136 163.789 42.9672 162.262 42.9672C160.685 42.9672 159.362 42.7136 158.267 42.1811C157.402 41.7753 156.639 41.2174 155.977 40.5073C155.723 40.2283 155.723 39.7972 156.003 39.5182L157.529 38.0473C158.089 38.7321 158.776 39.2646 159.591 39.645C160.43 40.0254 161.321 40.2283 162.262 40.2283C163.026 40.2283 163.738 40.0762 164.374 39.7972C165.036 39.5182 165.57 39.0871 165.977 38.4785C166.384 37.8952 166.588 37.1344 166.588 36.196V34.3955C166.105 35.207 165.443 35.8663 164.552 36.3228C163.662 36.7286 162.746 36.9568 161.779 36.9568ZM163.026 34.0404C163.84 34.0404 164.552 33.8122 165.189 33.3303C165.825 32.8738 166.283 32.3159 166.537 31.6819C166.563 31.6312 166.563 31.6058 166.563 31.5551V28.2583C166.563 28.2075 166.563 28.1822 166.537 28.1314C166.206 27.3199 165.697 26.6606 164.985 26.1533C164.298 25.6461 163.56 25.3925 162.797 25.3925C162.033 25.3925 161.397 25.5954 160.812 26.0265C160.252 26.4577 159.82 26.9902 159.514 27.675C159.209 28.3343 159.056 29.0444 159.056 29.8052C159.056 30.5914 159.234 31.3015 159.591 31.9355C159.947 32.5695 160.405 33.0767 160.99 33.4825C161.601 33.8375 162.262 34.0404 163.026 34.0404ZM174.451 36.1707V26.4069C174.451 26.2294 174.298 26.0773 174.12 26.0773H173.255C172.873 26.0773 172.542 25.7729 172.542 25.3672V23.9724C172.542 23.592 172.848 23.2623 173.255 23.2623H174.12C174.298 23.2623 174.451 23.1101 174.451 22.9326V22.3747C174.451 20.5994 174.883 19.2046 175.748 18.1648C176.639 17.0997 177.809 16.5671 179.26 16.5671C180.252 16.5671 181.245 16.77 182.237 17.1758C182.568 17.3026 182.746 17.6576 182.644 18.0127L182.059 20.1937C181.779 20.0415 181.448 19.9401 181.067 19.8386C180.71 19.7372 180.354 19.6865 180.049 19.6865C178.776 19.6865 178.115 20.5487 178.115 22.2732V22.9579C178.115 23.1355 178.268 23.2876 178.446 23.2876H180.939C181.321 23.2876 181.652 23.592 181.652 23.9977V25.3925C181.652 25.7729 181.346 26.1026 180.939 26.1026H178.446C178.268 26.1026 178.115 26.2548 178.115 26.4323V36.196C178.115 36.5764 177.81 36.9061 177.402 36.9061H175.112C174.756 36.8808 174.451 36.5764 174.451 36.1707ZM183.611 31.5044V23.2115C183.611 22.8311 183.916 22.5015 184.324 22.5015H186.614C186.995 22.5015 187.326 22.8058 187.326 23.2115V30.7182C187.326 32.9246 188.115 34.0404 189.718 34.0404C190.43 34.0404 191.117 33.8375 191.779 33.4064C192.441 32.9753 192.975 32.3413 193.382 31.5044C193.408 31.4537 193.408 31.4029 193.408 31.3522V23.2115C193.408 22.8311 193.713 22.5015 194.12 22.5015H196.41C196.792 22.5015 197.123 22.8058 197.123 23.2115V32.7724C197.123 33.1782 197.199 33.4571 197.326 33.6093C197.403 33.6854 197.479 33.7361 197.606 33.7868C197.861 33.8882 198.013 34.1672 198.013 34.4462V36.2721C198.013 36.6272 197.759 36.9061 197.402 36.9568C197.275 36.9822 197.173 36.9822 197.072 36.9822C196.843 37.0076 196.614 37.0076 196.41 37.0076C195.749 37.0076 195.214 36.8554 194.782 36.5764C194.374 36.2721 194.145 35.841 194.069 35.3084L194.044 35.0295C194.018 34.7251 193.662 34.6237 193.458 34.8519C192.899 35.5113 192.263 36.0185 191.499 36.3736C190.481 36.8554 189.387 37.109 188.166 37.109C186.69 37.109 185.545 36.6272 184.782 35.6888C183.993 34.7505 183.611 33.3557 183.611 31.5044ZM201.423 16.8715H203.713C204.095 16.8715 204.425 17.1758 204.425 17.5816V32.2905C204.425 32.9753 204.527 33.4064 204.756 33.6346C204.985 33.8629 205.291 33.9643 205.672 33.9643C205.978 33.9643 206.258 33.939 206.588 33.8629C206.614 33.8629 206.665 33.8375 206.69 33.8375C207.097 33.7361 207.479 33.9897 207.555 34.3955L207.81 35.841C207.861 36.1707 207.682 36.5004 207.352 36.6272C206.995 36.754 206.614 36.8554 206.181 36.9315C205.52 37.0583 204.934 37.1344 204.4 37.1344C203.255 37.1344 202.339 36.83 201.703 36.2214C201.092 35.6127 200.761 34.7251 200.761 33.5839V17.6069C200.71 17.1758 201.016 16.8715 201.423 16.8715Z" fill="#00B7E0"/>
</svg>
